HIERARCHY
ROOT hip
{
	OFFSET	0.00  0.00  0.00 
	CHANNELS 6 Xposition Yposition Zposition Xrotation Zrotation Yrotation
	JOINT abdomen
	{
		OFFSET	0.000000 0.000000 0.000000
		CHANNELS 3 Xrotation Zrotation Yrotation
		JOINT chest
		{
			OFFSET	0.000000 5.018152 -1.882228
			CHANNELS 3 Xrotation Zrotation Yrotation
			JOINT neckDummy
			{
				OFFSET	0.000000 8.316447 0.784897
				CHANNELS 3 Xrotation Yrotation Zrotation
				JOINT neck
				{
					OFFSET	0.000000 2.280413 -0.392801
					CHANNELS 3 Xrotation Zrotation Yrotation
					JOINT head
					{
						OFFSET	0.000000 3.496879 0.529469
						CHANNELS 3 Xrotation Zrotation Yrotation
						JOINT figureHair
						{
							OFFSET	0.000000 4.699570 0.720622
							CHANNELS 3 Zrotation Yrotation Xrotation
							End Site
							{
								OFFSET 0.000000 -6.419331 0.000000
							}
						}
					}
				}
			}
			JOINT lCollar
			{
				OFFSET	0.599237 8.316447 0.784897
				CHANNELS 3 Yrotation Zrotation Xrotation
				JOINT lShldr
				{
					OFFSET	6.421198 0.010146 -0.332128
					CHANNELS 3 Zrotation Yrotation Xrotation
					JOINT lForeArm
					{
						OFFSET	10.552783 0.025574 0.125508
						CHANNELS 3 Yrotation Zrotation Xrotation
						JOINT lHand
						{
							OFFSET	11.035963 0.319619 0.041520
							CHANNELS 3 Zrotation Yrotation Xrotation
							End Site
							{
								OFFSET 10.353753 0.000000 0.000000
							}
						}
					}
				}
			}
			JOINT rCollar
			{
				OFFSET	-0.599237 8.316447 0.784897
				CHANNELS 3 Yrotation Zrotation Xrotation
				JOINT rShldr
				{
					OFFSET	-6.421198 0.010146 -0.332128
					CHANNELS 3 Zrotation Yrotation Xrotation
					JOINT rForeArm
					{
						OFFSET	-10.552783 0.025574 0.125508
						CHANNELS 3 Yrotation Zrotation Xrotation
						JOINT rHand
						{
							OFFSET	-11.035963 0.319619 0.041520
							CHANNELS 3 Zrotation Yrotation Xrotation
							End Site
							{
								OFFSET -10.353753 0.000000 0.000000
							}
						}
					}
				}
			}
		}
	}
	JOINT lThigh
	{
		OFFSET	4.500466 -6.400484 -1.832696
		CHANNELS 3 Xrotation Zrotation Yrotation
		JOINT lShin
		{
			OFFSET	-1.359117 -18.918689 1.179887
			CHANNELS 3 Xrotation Zrotation Yrotation
			JOINT lFoot
			{
				OFFSET	-0.652380 -17.215186 -0.312137
				CHANNELS 3 Xrotation Yrotation Zrotation
				End Site
				{
					OFFSET 0.000000 0.000000 10.353752
				}
			}
		}
	}
	JOINT rThigh
	{
		OFFSET	-4.500466 -6.400484 -1.832696
		CHANNELS 3 Xrotation Zrotation Yrotation
		JOINT rShin
		{
			OFFSET	1.359117 -18.918689 1.179887
			CHANNELS 3 Xrotation Zrotation Yrotation
			JOINT rFoot
			{
				OFFSET	0.652380 -17.215186 -0.312137
				CHANNELS 3 Xrotation Yrotation Zrotation
				End Site
				{
					OFFSET 0.000000 0.000000 10.353752
				}
			}
		}
	}
}
MOTION
Frames:     10
Frame Time: 0.041667
-0.068588 41.502270 0.217734 0.000000 0.000000 0.000000 0.344939 -0.965774 -0.389497 -0.542047 -1.140026 0.079905 0.000000 0.000000 0.000000 0.000000 0.000000 0.000000 0.000000 0.000000 0.000000 0.000000 0.000000 0.000000 2.022840 -5.690636 -0.065405 -62.771564 21.355244 18.218992 -31.359348 -12.221013 -1.275611 7.907901 -3.780142 0.129098 -2.915648 6.065135 -0.049574 68.538177 34.087261 5.815926 40.059399 14.652096 -3.038240 -19.979586 4.896345 -22.942200 -11.242907 4.215741 0.167323 23.407244 -3.658766 -1.632130 -12.435087 1.071848 -0.518044 -11.236706 -4.490781 -0.098873 23.355251 3.491759 1.509766 -12.485967 -1.687246 0.577281 
0.073696 41.553005 0.067856 0.000000 0.000000 0.000000 0.341827 -1.128148 3.043334 -0.525162 -1.298573 0.078721 0.000000 0.000000 0.000000 0.000000 0.000000 0.000000 0.000000 -0.021680 -4.619863 0.000000 0.000000 0.000000 2.014843 -5.690248 -0.067425 -62.553150 22.920681 18.612635 -30.719513 -12.055121 -1.170081 8.207313 -4.524293 0.018874 -3.061268 6.127436 -0.050148 58.284351 36.312656 -6.954589 47.348537 16.590799 -6.001769 -19.979589 4.896338 -22.616997 -10.892839 3.952815 0.163732 22.174034 -3.574423 -1.528552 -11.567209 1.125520 -0.393895 -10.913905 -4.685687 -0.081825 22.180155 3.432740 1.367977 -11.634787 -1.638711 0.878056 
0.252118 41.598755 -0.096413 0.000000 0.000000 0.000000 0.432196 -1.327702 7.312627 -0.492353 -1.499654 0.077100 0.000000 0.000000 0.000000 0.000000 0.000000 0.000000 0.000000 -0.064691 -10.315541 0.000000 0.000000 0.000000 1.998729 -5.689392 -0.070880 -62.270340 24.802359 19.100283 -29.971539 -11.864357 -1.045344 8.608319 -5.448895 -0.126227 -3.243020 6.205081 -0.050600 44.926918 39.750225 -23.536055 55.121391 19.813831 -9.926525 -19.979589 4.896329 -21.971834 -10.433760 3.610973 0.166124 20.694986 -3.472339 -1.426591 -10.568998 1.187666 -0.202693 -10.489852 -4.918023 -0.061501 20.800621 3.346231 1.218166 -10.665527 -1.584603 1.248596 
0.440956 41.645931 -0.268628 0.000000 0.000000 0.000000 0.534378 -1.538623 11.828671 -0.456821 -1.712629 0.075375 0.000000 0.000000 0.000000 0.000000 0.000000 0.000000 0.000000 -0.111310 -16.336920 0.000000 0.000000 0.000000 1.981253 -5.688459 -0.074600 -61.970406 26.788231 19.615982 -29.183678 -11.663656 -0.913852 9.034506 -6.426875 -0.280276 -3.435323 6.287225 -0.051061 30.755161 43.433327 -41.124771 63.249710 23.281038 -14.094842 -19.979589 4.896320 -21.272549 -10.207088 3.205772 0.177439 19.572929 -3.363691 -1.350982 -9.686099 1.249730 0.037351 -10.262849 -5.167661 -0.029164 19.654659 3.286341 1.062225 -9.746698 -1.519399 1.608720 
0.622136 41.715801 -0.466453 0.000000 0.000000 0.000000 0.502645 -1.746583 16.210388 -0.438749 -1.913852 0.073909 0.000000 0.000000 0.000000 0.000000 0.000000 0.000000 0.000000 -0.134255 -22.248476 0.000000 0.000000 0.000000 1.972862 -5.688076 -0.076902 -61.694916 28.805586 20.118998 -28.352911 -11.447331 -0.777236 9.408244 -7.376979 -0.418605 -3.621002 6.366701 -0.051871 17.845278 46.076508 -57.219265 72.923271 25.520090 -17.807095 -19.979595 4.896311 -20.928366 -9.891023 2.864182 0.191589 18.257912 -3.282089 -1.258716 -8.695968 1.280774 0.243766 -10.046429 -5.417483 -0.007079 18.489521 3.213654 0.924025 -8.796835 -1.458713 1.948521 
0.777588 41.829628 -0.707550 0.000000 0.000000 0.000000 0.191268 -1.937255 20.076698 -0.458316 -2.079675 0.073064 0.000000 0.000000 0.000000 0.000000 0.000000 0.000000 0.000000 -0.106246 -27.614677 0.000000 0.000000 0.000000 1.984005 -5.688863 -0.076102 -61.485424 30.781704 20.568588 -27.476219 -11.209694 -0.637127 9.651903 -8.217951 -0.516545 -3.782885 6.436338 -0.053374 8.273472 46.394318 -69.318047 85.331833 25.058655 -20.363651 -19.979599 4.896304 -21.348507 -9.228630 2.545411 0.205019 16.052496 -3.178424 -1.057905 -7.156810 1.256022 0.400631 -9.416220 -5.599724 0.002794 16.361996 3.135963 0.693568 -7.294560 -1.372522 2.266247 
0.889238 42.008663 -1.009581 0.000000 0.000000 0.000000 -0.545484 -2.096314 23.046522 -0.535704 -2.186451 0.073203 0.000000 0.000000 0.000000 0.000000 0.000000 0.000000 0.000000 0.000000 -32.000000 0.000000 0.000000 0.000000 2.025130 -5.691447 -0.070517 -61.383484 32.643864 20.924025 -26.550585 -10.945055 -0.495155 9.687852 -8.868540 -0.549429 -3.903799 6.488969 -0.055912 4.115947 43.101303 -74.919640 101.665176 20.424404 -21.064886 -19.979601 4.896300 -22.942200 -8.892345 2.352174 0.250144 14.363811 -3.154560 -0.884701 -5.824296 1.155898 0.537238 -9.096490 -5.748862 0.012472 14.735886 3.105541 0.543407 -5.981556 -1.311098 2.470668 
0.935994 42.239441 -1.348822 0.000000 0.000000 0.000000 -1.713577 -2.210618 24.857494 -0.656761 -2.217252 0.072495 0.000000 0.000000 0.000000 0.000000 0.000000 0.000000 0.000000 0.184374 -35.093571 0.000000 0.000000 0.000000 2.096176 -5.695817 -0.060116 -61.401054 34.269119 21.154451 -25.567959 -10.647499 -0.351723 9.454004 -9.284658 -0.512049 -3.971801 6.519645 -0.059808 6.618307 35.620930 -72.499458 120.927757 11.665595 -19.666676 -19.979601 4.896298 -25.707808 -8.243335 2.261805 0.305538 11.908626 -3.106601 -0.621400 -4.024035 0.976466 0.542106 -8.411759 -5.770313 -0.021290 12.190836 3.065249 0.343911 -4.112488 -1.246315 2.552923 
0.884683 42.369564 -1.536003 0.000000 0.000000 0.000000 -2.759937 -2.271776 25.722095 -0.670005 -2.182033 0.060327 0.000000 0.000000 0.000000 0.000000 0.000000 0.000000 0.000000 0.337205 -37.083153 0.000000 0.000000 0.000000 2.155061 -5.699436 -0.051476 -61.431698 35.333626 21.268557 -24.500189 -10.310201 -0.202315 8.950448 -9.570897 -0.477042 -3.995880 6.532301 -0.065300 13.703780 26.212357 -64.440575 133.382889 4.912884 -17.746914 -19.979601 4.896298 -28.000282 -7.108426 2.266881 0.315283 8.913742 -2.986871 -0.291779 -2.167777 0.782702 0.385771 -7.289926 -5.596091 -0.066123 9.241162 2.947005 0.115521 -2.293411 -1.199259 2.524992 
0.699111 42.211895 -1.340467 0.000000 0.000000 0.000000 -2.991726 -2.272586 25.971516 -0.389620 -2.097467 0.023891 0.000000 0.000000 0.000000 0.000000 0.000000 0.000000 0.000000 0.321434 -38.281158 0.000000 0.000000 0.000000 2.149190 -5.699136 -0.052827 -61.339371 35.463306 21.284910 -23.314102 -9.926105 -0.041192 8.192818 -9.869013 -0.536503 -3.990257 6.533093 -0.072608 22.464996 17.843670 -54.102959 127.108536 7.817543 -17.339003 -19.979601 4.896299 -27.763714 -8.443316 2.677717 0.331067 12.344192 -3.191289 -0.560272 -4.257222 0.823206 0.235543 -8.633243 -5.421954 -0.089088 12.684633 3.131297 0.479356 -4.381255 -1.302199 2.108519 
